<?xml version="1.0" standalone="no"?><!DOCTYPE svg PUBLIC "-//W3C//DTD SVG 1.1//EN" "http://www.w3.org/Graphics/SVG/1.1/DTD/svg11.dtd"><svg t="1568114767591" class="icon" viewBox="0 0 1024 1024" version="1.1" xmlns="http://www.w3.org/2000/svg" p-id="4934" width="20" height="20" xmlns:xlink="http://www.w3.org/1999/xlink"><defs><style type="text/css"></style></defs><path d="M490 503.8c35.3-28.1 58-71.2 58-119.7 0-84.4-68.7-153.1-153.1-153.1-84.4 0-153.1 68.7-153.1 153.1 0 49 23.2 92.6 59.2 120.6-93.3 37.9-159.3 129.5-159.3 236.3v26.5c0 14.1 11.4 25.5 25.5 25.5h459.2c14.1 0 25.5-11.4 25.5-25.5V741c0-107.8-67.2-199.9-161.9-237.2zM294.9 384.1c0-55.2 44.8-100 100-100s100 44.8 100 100c0 54.4-43.8 98.7-97.9 99.8h-0.3c-0.9 0-1.8 0.1-2.6 0.1-54.7-0.5-99.2-45.1-99.2-99.9z m-98.1 355.8v-1c0-109.3 88.1-198.2 196.9-199.8h1.3c1 0 2-0.1 3.1-0.1 109.7 0.7 198.7 90.1 198.7 199.9l-400 1zM653.1 414.4c-17.9 0-32.4-14.5-32.4-32.4s14.5-32.4 32.4-32.4h196.8c17.9 0 32.4 14.5 32.4 32.4s-14.5 32.4-32.4 32.4H653.1zM653.1 544.6c-17.9 0-32.4-14.5-32.4-32.4s14.5-32.4 32.4-32.4h196.8c17.9 0 32.4 14.5 32.4 32.4s-14.5 32.4-32.4 32.4H653.1zM733.1 674.4c-17.9 0-32.4-14.5-32.4-32.4s14.5-32.4 32.4-32.4h116.8c17.9 0 32.4 14.5 32.4 32.4s-14.5 32.4-32.4 32.4H733.1z" p-id="4935" fill="#515151"></path></svg>