<?xml version="1.0" standalone="no"?><!DOCTYPE svg PUBLIC "-//W3C//DTD SVG 1.1//EN" "http://www.w3.org/Graphics/SVG/1.1/DTD/svg11.dtd"><svg t="1565339248498" class="icon" viewBox="0 0 1024 1024" version="1.1" xmlns="http://www.w3.org/2000/svg" p-id="19516" xmlns:xlink="http://www.w3.org/1999/xlink" width="26" height="26"><defs><style type="text/css"></style></defs><path d="M512 851.2c-19.2 0-32-12.8-32-32v-172.8c0-19.2 12.8-6.4 32-6.4s32-12.8 32 6.4v172.8c0 12.8-12.8 32-32 32zM288 819.2h-12.8c-19.2-12.8-25.6-32-19.2-44.8l64-147.2c6.4-19.2 25.6-25.6 44.8-19.2 19.2 12.8 25.6 25.6 19.2 44.8l-64 147.2c-6.4 12.8-19.2 19.2-32 19.2zM128 691.2c-6.4 0-12.8 0-19.2-6.4-12.8-12.8-12.8-32-6.4-44.8l96-115.2c12.8-12.8 32-19.2 44.8-6.4 12.8 12.8 19.2 32 6.4 44.8l-96 115.2c-6.4 6.4-19.2 12.8-25.6 12.8zM736 819.2c-12.8 0-25.6-6.4-32-19.2l-64-147.2c-6.4-19.2 0-32 19.2-44.8 12.8-6.4 32 0 44.8 19.2l64 147.2c6.4 19.2 0 32-19.2 44.8h-12.8zM896 691.2c-6.4 0-19.2-6.4-25.6-12.8l-96-115.2c-12.8-12.8-12.8-32 6.4-44.8 12.8-12.8 32-12.8 44.8 6.4l96 115.2c12.8 12.8 12.8 32-6.4 44.8-6.4 0-12.8 6.4-19.2 6.4z" fill="#0A60FF" p-id="19517"></path><path d="M550.4 659.2c-51.2 6.4-108.8 0-160-12.8C256 608 140.8 505.6 83.2 377.6c19.2-6.4 38.4-19.2 57.6-25.6 38.4 83.2 102.4 153.6 179.2 198.4 160 89.6 364.8 44.8 492.8-83.2 32-32 51.2-64 70.4-102.4l6.4-12.8 57.6 19.2-6.4 12.8c-19.2 44.8-44.8 89.6-83.2 128-76.8 83.2-192 134.4-307.2 147.2z" fill="#0A60FF" p-id="19518"></path></svg>