<?xml version="1.0" standalone="no"?><!DOCTYPE svg PUBLIC "-//W3C//DTD SVG 1.1//EN" "http://www.w3.org/Graphics/SVG/1.1/DTD/svg11.dtd"><svg t="1567232312395" class="icon" viewBox="0 0 1245 1024" version="1.1" xmlns="http://www.w3.org/2000/svg" p-id="41656" xmlns:xlink="http://www.w3.org/1999/xlink" width="36.474609375" height="30"><defs><style type="text/css"></style></defs><path d="M295.926606 955.889908l40.70948-46.189602-37.577982 14.091743-201.981651-540.966361 766.43425-286.53211L947.278287 321.761468h87.681958L915.180428 0 0 342.116208l255.217125 681.883792 11.74312-4.697248z" fill="#DEEBF9" p-id="41657"></path><path d="M268.525994 292.795107v728.073395h977.027523v-728.073395H268.525994z m894.825688 649.785933H345.247706V364.819572h818.103976v577.761468z" fill="#AFD1F9" p-id="41658"></path><path d="M686.58104 740.599388l-6.262997 3.131499 3.914373 1.565749z" fill="#AFD1F9" opacity=".46" p-id="41659"></path><path d="M984.856269 584.024465l-86.116208 45.406728 177.712538 246.605504z" fill="#CCE6FF" p-id="41660"></path><path d="M577.761468 709.284404l-148.746177 166.752293L680.318043 743.730887z" fill="#C3E2FC" p-id="41661"></path><path d="M680.318043 743.730887l-251.302752 132.30581H610.642202l73.590214-130.740061z" fill="#AFD1F9" opacity=".46" p-id="41662"></path><path d="M680.318043 743.730887l-251.302752 132.30581H610.642202l73.590214-130.740061z" fill="#9BCAF9" p-id="41663"></path><path d="M814.189602 512L686.58104 740.599388l212.159021-111.168195z" fill="#DEEBF9" p-id="41664"></path><path d="M1076.452599 876.036697l-177.712538-246.605504-212.159021 111.168195-2.348624 4.697248z" fill="#AFD1F9" opacity=".46" p-id="41665"></path><path d="M1076.452599 876.036697l-177.712538-246.605504-212.159021 111.168195-2.348624 4.697248z" fill="#9EC8F2" p-id="41666"></path><path d="M684.232416 745.296636L610.642202 876.036697h465.810397z" fill="#AFD1F9" opacity=".46" p-id="41667"></path><path d="M684.232416 745.296636L610.642202 876.036697h465.810397z" fill="#AFD1F9" opacity=".46" p-id="41668"></path><path d="M684.232416 745.296636L610.642202 876.036697h465.810397z" fill="#AFD1F9" p-id="41669"></path><path d="M512.782875 457.198777h-3.131499c-44.623853 0-81.41896 36.012232-81.41896 81.41896 0 44.623853 36.012232 81.41896 81.41896 81.41896h3.131499V457.198777z" fill="#DEEBF9" p-id="41670"></path><path d="M504.171254 619.253823h3.131498c44.623853 0 81.41896-36.012232 81.418961-81.418961 0-44.623853-36.012232-81.41896-81.418961-81.41896h-3.131498v162.837921zM699.889908 218.422018s68.892966-14.091743 93.944954 18.788991c-3.914373-19.571865 4.697248-23.486239 51.669725-21.137615-26.617737-14.874618-55.584098-14.874618-64.195718-0.782874-19.571865-15.657492-57.932722-22.703364-81.418961 3.131498z" fill="#AFD1F9" p-id="41671"></path></svg>