<?xml version="1.0" standalone="no"?><!DOCTYPE svg PUBLIC "-//W3C//DTD SVG 1.1//EN" "http://www.w3.org/Graphics/SVG/1.1/DTD/svg11.dtd"><svg t="1566179073593" class="icon" viewBox="0 0 1024 1024" version="1.1" xmlns="http://www.w3.org/2000/svg" p-id="12236" xmlns:xlink="http://www.w3.org/1999/xlink" width="25" height="25"><defs><style type="text/css"></style></defs><path d="M631.808 333.226667a69.12 69.12 0 0 0-69.12-68.693334h-92.842667a69.12 69.12 0 0 0-69.12 68.693334H331.093333A92.16 92.16 0 0 0 238.933333 425.386667v250.453333A92.16 92.16 0 0 0 331.093333 768h370.346667a92.16 92.16 0 0 0 92.16-92.16V425.386667a92.16 92.16 0 0 0-92.16-92.16h-69.632zM512 1024C229.248 1024 0 794.752 0 512S229.248 0 512 0s512 229.248 512 512-229.248 512-512 512z m4.266667-370.432c-63.829333 0-115.541333-51.2-115.541334-114.432 0-63.146667 51.712-114.389333 115.541334-114.389333 63.829333 0 115.541333 51.2 115.541333 114.389333s-51.712 114.432-115.541333 114.432z m0-22.869333c51.072 0 92.458667-40.96 92.458666-91.562667 0-50.56-41.386667-91.52-92.458666-91.52-51.072 0-92.458667 40.96-92.458667 91.52s41.386667 91.562667 92.458667 91.562667z" p-id="12237" fill="#515151"></path></svg>