<?xml version="1.0" standalone="no"?><!DOCTYPE svg PUBLIC "-//W3C//DTD SVG 1.1//EN" "http://www.w3.org/Graphics/SVG/1.1/DTD/svg11.dtd"><svg t="1567084040365" class="icon" viewBox="0 0 1024 1024" version="1.1" xmlns="http://www.w3.org/2000/svg" p-id="3785" width="24" height="24" xmlns:xlink="http://www.w3.org/1999/xlink"><defs><style type="text/css"></style></defs><path d="M79.644444 719.644444c0 68.266667 36.977778 68.266667 108.088889 68.266667h651.377778c68.266667 0 68.266667 0 68.266667-68.266667v-153.6h71.111111v190.577778c0 76.8-62.577778 99.555556-139.377778 99.555556h-250.311111v71.111111H995.555556c39.822222 0 36.977778 65.422222 0 65.422222H28.444444c-36.977778 0-36.977778-65.422222 0-65.422222h412.444445v-71.111111H113.777778c-68.266667 0-110.933333-45.511111-110.933334-99.555556V201.955556c0-65.422222 48.355556-85.333333 110.933334-85.333334h352.711111v85.333334H187.733333c-73.955556 0-108.088889 17.066667-108.088889 73.955555v443.733333z m896-230.4h-369.777777c-25.6 0-45.511111-19.911111-45.511111-45.511111v-369.777777c0-25.6 19.911111-45.511111 45.511111-45.511112h369.777777c25.6 0 45.511111 19.911111 45.511112 45.511112v369.777777c0 25.6-19.911111 45.511111-45.511112 45.511111z m0-82.488888c0-36.977778-128-62.577778-150.755555-62.577778v-28.444445c22.755556-8.533333 39.822222-25.6 48.355555-48.355555 14.222222-11.377778 22.755556-25.6 28.444445-42.666667 5.688889-36.977778-5.688889-34.133333-14.222222-34.133333 0-22.755556-2.844444-48.355556-5.688889-71.111111-17.066667-31.288889-51.2-51.2-88.177778-48.355556-31.288889 0-39.822222 22.755556-82.488889 14.222222 0 11.377778 0 25.6 5.688889 34.133334-19.911111 0-19.911111 42.666667-19.911111 71.111111-17.066667 0-14.222222 22.755556-14.222222 36.977778 2.844444 19.911111 17.066667 36.977778 34.133333 42.666666 0 0 14.222222 48.355556 39.822222 48.355556v28.444444c-36.977778 0-150.755556 19.911111-150.755555 62.577778v34.133333h369.777777v-36.977777zM216.177778 674.133333c-5.688889 0-8.533333 0-11.377778-2.844444-8.533333-5.688889-11.377778-11.377778-14.222222-22.755556v-275.911111c0-8.533333 5.688889-17.066667 14.222222-22.755555s17.066667-5.688889 25.6 0l227.555556 136.533333c11.377778 5.688889 17.066667 22.755556 8.533333 34.133333l-8.533333 8.533334-227.555556 136.533333c-5.688889 8.533333-11.377778 8.533333-14.222222 8.533333z" fill="#0c0c0c" p-id="3786"></path></svg>