<?xml version="1.0" standalone="no"?><!DOCTYPE svg PUBLIC "-//W3C//DTD SVG 1.1//EN" "http://www.w3.org/Graphics/SVG/1.1/DTD/svg11.dtd"><svg t="1565501955901" class="icon" viewBox="0 0 1024 1024" version="1.1" xmlns="http://www.w3.org/2000/svg" p-id="66305" xmlns:xlink="http://www.w3.org/1999/xlink" width="22" height="22"><defs><style type="text/css"></style></defs><path d="M858.112 860.16H583.68C372.736 860.16 200.704 688.128 200.704 475.136S376.832 96.256 583.68 96.256s380.928 172.032 380.928 385.024c0 94.208-34.816 184.32-98.304 253.952-12.288 12.288-26.624 12.288-43.008 4.096-12.288-12.288-12.288-26.624-4.096-43.008 51.2-59.392 81.92-137.216 81.92-215.04 0-178.176-143.36-323.584-319.488-323.584s-321.536 145.408-321.536 321.536S409.6 800.768 585.728 800.768H860.16c16.384 0 30.72 12.288 30.72 30.72 0 16.384-12.288 28.672-32.768 28.672z" fill="#515151" p-id="66306"></path><path d="M579.584 649.216c-38.912 0-71.68-18.432-92.16-49.152-6.144-10.24-6.144-28.672 6.144-34.816 10.24-6.144 28.672-6.144 34.816 6.144 10.24 18.432 32.768 24.576 49.152 24.576 20.48 0 38.912-10.24 49.152-28.672 6.144-10.24 24.576-14.336 34.816-6.144 10.24 6.144 14.336 24.576 6.144 34.816-12.288 30.72-49.152 49.152-88.064 53.248zM409.6 856.064c-12.288 2.048-22.528 2.048-34.816 2.048H139.264c-14.336 0-26.624 10.24-26.624 26.624 0 14.336 10.24 24.576 26.624 24.576h235.52c49.152 0 96.256-10.24 137.216-30.72-34.816-2.048-69.632-10.24-102.4-22.528zM169.984 804.864c10.24-10.24 10.24-24.576 4.096-36.864C129.024 716.8 102.4 649.216 102.4 581.632c0-69.632 26.624-133.12 69.632-182.272 10.24-38.912 26.624-75.776 49.152-108.544-102.4 55.296-172.032 165.888-172.032 290.816 0 81.92 30.72 157.696 83.968 219.136 10.24 10.24 24.576 10.24 36.864 4.096z" fill="#515151" p-id="66307"></path></svg>