<?xml version="1.0" standalone="no"?><!DOCTYPE svg PUBLIC "-//W3C//DTD SVG 1.1//EN" "http://www.w3.org/Graphics/SVG/1.1/DTD/svg11.dtd"><svg t="1566181683274" class="icon" viewBox="0 0 1024 1024" version="1.1" xmlns="http://www.w3.org/2000/svg" p-id="996" xmlns:xlink="http://www.w3.org/1999/xlink" width="16" height="16"><defs><style type="text/css"></style></defs><path d="M462.72 160a1493.44 1493.44 0 0 0-245.76 17.92 228.48 228.48 0 0 0-166.72 166.72 1488 1488 0 0 0 0 462.4 228.48 228.48 0 0 0 166.72 166.72 1488 1488 0 0 0 462.4 0 228.48 228.48 0 0 0 166.72-166.72 1495.04 1495.04 0 0 0 17.92-245.76A320 320 0 0 1 462.72 160zM768 32a224 224 0 1 0 224 224 224 224 0 0 0-224-224z m35.52 320a37.76 37.76 0 1 1-75.52 0V226.24A37.44 37.44 0 0 1 678.72 192c0-32 68.48-69.44 87.04-69.44A37.76 37.76 0 0 1 803.52 160z" fill="#515151" p-id="997"></path></svg>