<?xml version="1.0" standalone="no"?><!DOCTYPE svg PUBLIC "-//W3C//DTD SVG 1.1//EN" "http://www.w3.org/Graphics/SVG/1.1/DTD/svg11.dtd"><svg t="1566094440741" class="icon" viewBox="0 0 1024 1024" version="1.1" xmlns="http://www.w3.org/2000/svg" p-id="1560" width="20" height="20" xmlns:xlink="http://www.w3.org/1999/xlink"><defs><style type="text/css"></style></defs><path d="M475.6 807.5H164.7c-15.4 0-27.9-12.5-27.9-27.9V142.9c0-15.4 12.5-27.9 27.9-27.9h21.4V49h-21.4c-51.8 0-94 42.1-94 94v636.6c0 51.8 42.2 94 94 94h319.9c-5.4-21-9.1-42.7-9.1-65.4 0-0.2 0.1-0.5 0.1-0.7zM723.8 142.9c0-51.8-42.2-94-93.9-94h-21.4V115h21.4c15.3 0 27.9 12.5 27.9 27.9v415c21-7 43.1-11.4 66.1-12.8V142.9z" p-id="1561" fill="#515151"></path><path d="M254.4 160.6h285.8c18.1 0 32.7-14.7 32.7-32.7V32.7c0-18-14.7-32.7-32.7-32.7H254.4c-18.1 0-32.7 14.7-32.7 32.7v95.1c0 18.1 14.6 32.8 32.7 32.8z m17.8-110.1h250.1V110H272.2V50.5z" p-id="1562" fill="#515151"></path><path d="M220 367.7h222.9c18.8 0 34.2-15.4 34.2-34.2 0-18.8-15.4-34.2-34.2-34.2H220c-18.8 0-34.3 15.4-34.3 34.2 0.1 18.8 15.5 34.2 34.3 34.2zM538.5 444.6l-318.3-1.5c-18.8-0.1-34.3 15.3-34.4 34.1-0.1 18.8 15.3 34.3 34.1 34.4l318.3 1.5c18.8 0.1 34.3-15.3 34.4-34.1 0-18.8-15.3-34.3-34.1-34.4zM568.6 608.3c-5.6-11.1-16.8-19-30.1-19.1l-318.3-1.5c-18.8-0.1-34.3 15.3-34.4 34.1-0.1 18.8 15.3 34.3 34.1 34.4l303.1 1.4c12.8-18.5 28.5-34.6 45.6-49.3zM740.3 595.2c-117.6 0-213 95.4-213 213s95.4 213 213 213 213-95.4 213-213-95.4-213-213-213z m105.1 244.2h-73.9v73.9c0 17.2-14 31.2-31.2 31.2s-31.2-14-31.2-31.2v-73.9h-73.9c-17.1 0-31.2-14-31.2-31.2s14-31.2 31.2-31.2h73.9v-73.9c0-17.2 14-31.2 31.2-31.2 17.1 0 31.2 14 31.2 31.2V777h73.9c17.2 0 31.2 14 31.2 31.2s-14 31.2-31.2 31.2z" p-id="1563" fill="#515151"></path></svg>