<?xml version="1.0" standalone="no"?><!DOCTYPE svg PUBLIC "-//W3C//DTD SVG 1.1//EN" "http://www.w3.org/Graphics/SVG/1.1/DTD/svg11.dtd"><svg t="1565313940792" class="icon" viewBox="0 0 1105 1024" version="1.1" xmlns="http://www.w3.org/2000/svg" p-id="2032" xmlns:xlink="http://www.w3.org/1999/xlink" width="15.107421875" height="14"><defs><style type="text/css"></style></defs><path d="M0 1024h236.877108V439.567422H0z m1099.344193-567.875855a36.864 36.864 0 0 0-30.76935-16.556723H692.729831V105.570699A105.70641 105.70641 0 0 0 587.109783 0h-68.79306a105.70641 105.70641 0 0 0-105.620048 105.570699v198.976771c0 0.83894 0 1.67788 0.086361 2.46747 0 0.481157 2.356434 49.52212-32.410217 86.756241-15.952193 17.074892-37.542554 29.412241-64.536674 36.938024V1024h546.39653a36.839325 36.839325 0 0 0 33.866024-22.318265l206.354506-510.766265a36.851663 36.851663 0 0 0-3.109012-34.791325z" p-id="2033" fill="#707070"></path></svg>