<?xml version="1.0" standalone="no"?><!DOCTYPE svg PUBLIC "-//W3C//DTD SVG 1.1//EN" "http://www.w3.org/Graphics/SVG/1.1/DTD/svg11.dtd"><svg t="1565313389116" class="icon" viewBox="0 0 1105 1024" version="1.1" xmlns="http://www.w3.org/2000/svg" p-id="1435" width="15.107421875" height="14" xmlns:xlink="http://www.w3.org/1999/xlink"><defs><style type="text/css"></style></defs><path d="M1099.344193 456.124145a36.851663 36.851663 0 0 0-30.757012-16.556723H692.729831V105.570699A105.718747 105.718747 0 0 0 587.109783 0h-68.79306a105.718747 105.718747 0 0 0-105.632386 105.570699v198.976771q0 1.233735 0.086362 2.46747c0 0.481157 2.368771 49.534458-32.410217 86.756241-28.375904 30.34988-74.505253 45.746892-137.178988 45.746891H0V1024h862.232675a36.851663 36.851663 0 0 0 33.866024-22.318265l206.342168-510.766265a36.802313 36.802313 0 0 0-3.096674-34.791325zM73.690988 513.233735h132.651181v437.383711H73.690988z m764.249446 437.112289H280.057831V511.617542c66.078843-5.971277 117.846361-28.622651 154.216868-67.522313 53.050602-56.751807 52.64347-128.308434 52.149976-140.399036V105.570699a31.966072 31.966072 0 0 1 31.892048-31.916723h68.780723a31.966072 31.966072 0 0 1 31.92906 31.916723v336.451855h2.46747V513.233735h391.205012z" p-id="1436" fill="#707070"></path></svg>