<?xml version="1.0" standalone="no"?><!DOCTYPE svg PUBLIC "-//W3C//DTD SVG 1.1//EN" "http://www.w3.org/Graphics/SVG/1.1/DTD/svg11.dtd"><svg t="1565250060441" class="icon" viewBox="0 0 1024 1024" version="1.1" xmlns="http://www.w3.org/2000/svg" p-id="1257" width="16" height="16" xmlns:xlink="http://www.w3.org/1999/xlink"><defs><style type="text/css"></style></defs><path d="M728.153613 555.13498a30.11336 30.11336 0 0 0-51.79498 9.335141A224.34453401 224.34453401 0 0 1 637.813532 632.526316a312.275547 312.275547 0 0 0 1.80680199-33.726964 381.23514201 381.23514201 0 0 0-2.71020299-41.857571 308.963077 308.963077 0 0 0-23.187287-81.00493901 34.329231 34.329231 0 0 0-3.914737-8.43174099 301.133603 301.133603 0 0 0-110.51603299-127.078381 30.11336 30.11336 0 0 0-30.11336002 0 30.11336 30.11336 0 0 0-15.96008099 26.198624 207.481053 207.481053 0 0 1-21.982753 90.340081 201.458381 201.458381 0 0 1-76.789069 82.81174099A271.020243 271.020243 0 0 0 268.924868 619.577571a264.09417001 264.09417001 0 0 0-42.760972 144.242996 259.57716599 259.57716599 0 0 0 30.113361 124.66931099 266.804373 266.804373 0 0 0 94.25481701 99.67522301 30.11336 30.11336 0 0 0 33.72696398 0 30.11336 30.11336 0 0 0 11.44307701-31.619028 267.10550599 267.10550599 0 0 1-6.92607301-60.226721 251.145425 251.145425 0 0 1 17.46574901-92.74914999 236.088745 236.088745 0 0 1 18.068016-38.54510101l1.806802 4.215871a470.972956 470.972956 0 0 0 199.35044501 221.032064 207.179919 207.179919 0 0 0 19.87481799 10.539677l3.31246999 1.80680099a30.11336 30.11336 0 0 0 32.22129501-3.91473699 316.792551 316.792551 0 0 0 107.50469699-167.12915 341.78664 341.78664 0 0 0 9.93740901-78.59587 315.286883 315.286883 0 0 0-70.16413-197.844777z" fill="#cdcdcd" p-id="1258"></path><path d="M281.572479 371.142348a30.11336 30.11336 0 0 1-25.295222-13.551012 30.11336 30.11336 0 0 1 8.732874-41.556437l12.64761101-8.130608a30.11336 30.11336 0 0 1 30.11336099 51.79498l-8.732875 6.62493899a30.11336 30.11336 0 0 1-17.465749 4.81813801z" fill="#6B400D" p-id="1259"></path><path d="M707.074261 1024a32.221296 32.221296 0 0 1-10.539676-1.80680199 412.251903 412.251903 0 0 1-70.465264-32.82356201 470.972956 470.972956 0 0 1-199.350445-221.032065l-1.80680199-4.215871a236.088745 236.088745 0 0 0-18.06801602 38.54510199 256.264696 256.264696 0 0 0-3.91473699 175.25975701 30.11336 30.11336 0 0 1-6.926073 30.11336 30.11336 30.11336 0 0 1-30.11336 8.13060701 391.473684 391.473684 0 0 1-231.571741-190.01530301 391.473684 391.473684 0 0 1 17.164616-396.291822c5.72153801-9.034008 12.045344-17.766883 18.369149-25.89749a30.11336 30.11336 0 0 1 47.57910999 36.73829901c-5.420405 7.22720601-10.539676 14.454413-15.35781399 21.98275299a331.246964 331.246964 0 0 0-14.755547 335.462834 331.246964 331.246964 0 0 0 144.54413 140.32826A337.269636 337.269636 0 0 1 329.151589 895.415951a312.275547 312.275547 0 0 1 21.38048499-114.129635 308.963077 308.963077 0 0 1 60.22672101-100.879757 30.11336 30.11336 0 0 1 30.11336-9.03400899 30.11336 30.11336 0 0 1 21.982753 21.38048599 439.353927 439.353927 0 0 0 18.36914999 51.493847 412.85417001 412.85417001 0 0 0 174.35635701 193.02663901 309.565344 309.565344 0 0 0 46.976842 22.88615399 412.251903 412.251903 0 0 0 160.20307699-233.37854199 421.587045 421.587045 0 0 0 12.04534402-100.27749001 402.01336 402.01336 0 0 0-60.22672101-214.105992 331.246964 331.246964 0 0 1-20.17595099 34.93149801 376.417004 376.417004 0 0 1-125.87384601 122.26024299c-9.937409 5.72153801-19.573684 10.84080999-30.113361 15.658947a30.11336 30.11336 0 0 1-33.726963-5.721539 30.11336 30.11336 0 0 1-4.517004-33.72696299 389.365749 389.365749 0 0 0 30.11336-156.89060701 481.813765 481.813765 0 0 0-3.31246999-54.806316 402.01336 402.01336 0 0 0-30.11336-105.697895v-3.31246999l-1.80680201-3.31246901a389.365749 389.365749 0 0 0-101.78315799-135.208988 396.894089 396.894089 0 0 1-37.6417 114.731903 30.11336 30.11336 0 0 1-53.60178101-27.102025A338.775304 338.775304 0 0 0 437.258552 30.259109a30.11336 30.11336 0 0 1 46.675709-25.29522299 451.700405 451.700405 0 0 1 164.418947 189.71416999 50.891579 50.891579 0 0 1 5.119271 10.84080999 458.024211 458.024211 0 0 1 34.32923099 120.45344101 556.193765 556.193765 0 0 1 2.71020301 62.936924 466.757085 466.757085 0 0 1-10.539677 98.169554 319.502753 319.502753 0 0 0 62.936924-72.272065A307.156275 307.156275 0 0 0 780.85199399 341.330121a30.11336 30.11336 0 0 1 50.89157901-9.937409 470.069555 470.069555 0 0 1 103.89109299 294.508664 481.813765 481.813765 0 0 1-13.85214599 114.731903 471.876356 471.876356 0 0 1-198.145911 277.946316 30.11336 30.11336 0 0 1-16.562348 5.420405zM597.762763 227.20048601z m-2.107935-3.91473701z" fill="#6B400D" p-id="1260"></path></svg>