<?xml version="1.0" standalone="no"?><!DOCTYPE svg PUBLIC "-//W3C//DTD SVG 1.1//EN" "http://www.w3.org/Graphics/SVG/1.1/DTD/svg11.dtd"><svg t="1565965046168" class="icon" viewBox="0 0 1024 1024" version="1.1" xmlns="http://www.w3.org/2000/svg" p-id="2197" xmlns:xlink="http://www.w3.org/1999/xlink" width="28" height="28"><defs><style type="text/css"></style></defs><path d="M512 640a213.312 213.312 0 0 0 213.312-213.312V213.312a213.312 213.312 0 1 0-426.624 0v213.376A213.312 213.312 0 0 0 512 640z" fill="#ffffff" p-id="2198"></path><path d="M874.688 384a64 64 0 0 0-64 64v8.832c0 163.52-126.08 306.112-289.472 311.04a298.688 298.688 0 0 1-307.84-298.56V448a64 64 0 0 0-128 0v6.72c0 207.744 143.424 390.912 341.312 432.128v51.84a85.312 85.312 0 0 0 170.624 0v-51.84c194.688-39.552 341.376-211.2 341.376-417.536V448a64 64 0 0 0-64-64z" fill="#ffffff" p-id="2199"></path></svg>