<?xml version="1.0" standalone="no"?><!DOCTYPE svg PUBLIC "-//W3C//DTD SVG 1.1//EN" "http://www.w3.org/Graphics/SVG/1.1/DTD/svg11.dtd"><svg t="1565694964820" class="icon" viewBox="0 0 1024 1024" version="1.1" xmlns="http://www.w3.org/2000/svg" p-id="1346" width="24" height="24" xmlns:xlink="http://www.w3.org/1999/xlink"><defs><style type="text/css"></style></defs><path d="M518.5 350.1c9.7-12.7 18.2-24.3 27.2-35.5 58.8-73.6 133.8-117 229.3-119.4 128.6-3.2 219.7 102.2 194.4 256.5-20.3 87-27.2 134.3-112.7 220.6-127 130-257.7 189.6-310.8 201.2-20 4.4-20.1-2.1-20.1-2.1s68.3-26.1 130.9-80.6C709 743.7 718 737 765.8 678.2c49.3-60.5 97.2-166.1 104.7-250.4 1-79.7-54.5-121.3-136.4-102-65.9 13.9-179.6 116.3-215.2 179.7-12.5-10.9-23.5-20.5-36-29.3-45.3-34.9-116.2-63.5-175.1-62.9-83.1 0.9-136.3 66.5-108.6 144.3 17.3 48.3 50.6 91 77.9 135.5 8.2 13.3 27.6 39.3 27.6 39.3s-114-47-170-147.6c-28.6-45.7-54.2-98.4-61.9-150.8-14.3-97 39.5-190.8 113.3-223.8 78.8-35.3 197.6-7.9 268.8 63.9 22.7 22.6 41.4 49.1 63.6 76z" fill="#8a8a8a" p-id="1347"></path></svg>