<?xml version="1.0" standalone="no"?><!DOCTYPE svg PUBLIC "-//W3C//DTD SVG 1.1//EN" "http://www.w3.org/Graphics/SVG/1.1/DTD/svg11.dtd"><svg class="icon" width="28px" height="28.00px" viewBox="0 0 1024 1024" version="1.1" xmlns="http://www.w3.org/2000/svg"><path d="M512 1000.727273c269.963636 0 488.727273-218.763636 488.727273-488.727273s-128 125.672727-537.6 0S23.272727 242.036364 23.272727 512s218.763636 488.727273 488.727273 488.727273z" fill="#D8D8D8" /><path d="M963.490909 314.181818c-9.309091 4.654545-20.945455 0-25.6-9.309091-6.981818-11.636364-11.636364-25.6-20.945454-37.236363-46.545455-79.127273-118.690909-141.963636-200.145455-183.854546-9.309091-4.654545-13.963636-16.290909-9.309091-25.6 4.654545-9.309091 16.290909-13.963636 25.6-9.309091 90.763636 44.218182 165.236364 111.709091 216.436364 197.818182 6.981818 13.963636 16.290909 25.6 20.945454 39.563636 6.981818 13.963636 2.327273 25.6-6.981818 27.927273z m41.890909 179.2c-11.636364 0-18.618182 9.309091-18.618182 18.618182 0 260.654545-211.781818 472.436364-472.436363 472.436364S39.563636 772.654545 39.563636 512 251.345455 37.236364 512 37.236364c11.636364 0 18.618182-9.309091 18.618182-18.618182S523.636364 0 512 0C230.4 0 0 230.4 0 512s230.4 512 512 512 512-230.4 512-512c0-11.636364-9.309091-18.618182-18.618182-18.618182zM607.418182 37.236364c0 11.636364 9.309091 18.618182 18.618182 18.618181s18.618182-9.309091 18.618181-18.618181-9.309091-18.618182-18.618181-18.618182-18.618182 9.309091-18.618182 18.618182zM965.818182 397.963636c0 11.636364 9.309091 18.618182 18.618182 18.618182s18.618182-9.309091 18.618181-18.618182-9.309091-18.618182-18.618181-18.618181-18.618182 9.309091-18.618182 18.618181z" fill="#999999" /><path d="M512 651.636364c74.472727 0 132.654545-55.854545 132.654545-128v-209.454546c0-69.818182-60.509091-128-132.654545-128s-132.654545 58.181818-132.654545 128v211.781818c2.327273 69.818182 60.509091 125.672727 132.654545 125.672728z" fill="#999999" /><path d="M719.127273 432.872727c-13.963636 0-25.6 11.636364-25.6 25.6v67.490909c0 95.418182-81.454545 172.218182-179.2 172.218182s-179.2-76.8-179.2-172.218182v-74.472727c0-13.963636-11.636364-25.6-25.6-25.6s-30.254545 11.636364-30.254546 25.6v74.472727c0 114.036364 90.763636 209.454545 207.127273 221.090909v53.527273h-88.436364c-13.963636 0-25.6 11.636364-25.6 25.6s11.636364 25.6 25.6 25.6h228.072728c13.963636 0 25.6-11.636364 25.6-25.6 0-13.963636-11.636364-25.6-25.6-25.6h-88.436364v-53.527273c116.363636-11.636364 207.127273-107.054545 207.127273-221.090909v-67.490909c0-16.290909-11.636364-25.6-25.6-25.6z" fill="#999999" /></svg>