<?xml version="1.0" standalone="no"?><!DOCTYPE svg PUBLIC "-//W3C//DTD SVG 1.1//EN" "http://www.w3.org/Graphics/SVG/1.1/DTD/svg11.dtd"><svg t="1567148714613" class="icon" viewBox="0 0 1234 1024" version="1.1" xmlns="http://www.w3.org/2000/svg" p-id="9310" xmlns:xlink="http://www.w3.org/1999/xlink" width="28.921875" height="24"><defs><style type="text/css"></style></defs><path d="M810.164706 75.294118H102.4c60.235294 51.2 96.376471 120.470588 96.376471 195.764706s-36.141176 141.552941-96.376471 195.764705h707.764706c135.529412 0 249.976471-87.341176 249.97647-195.764705s-114.447059-195.764706-249.97647-195.764706zM234.917647 554.164706h554.164706c-45.176471 51.2-75.294118 120.470588-75.294118 195.764706s27.105882 141.552941 75.294118 195.764706H234.917647c-108.423529 0-195.764706-87.341176-195.764706-195.764706 3.011765-108.423529 90.352941-195.764706 195.764706-195.764706z" fill="#ffffff" p-id="9311"></path><path d="M987.858824 752.941176m-219.858824 0a219.858824 219.858824 0 1 0 439.717647 0 219.858824 219.858824 0 1 0-439.717647 0Z" fill="#ffffff" p-id="9312"></path><path d="M885.458824 743.905882h210.823529v30.117647h-210.823529z" fill="#ffffff" p-id="9313"></path><path d="M972.8 653.552941h30.117647v210.82353h-30.117647z" fill="#ffffff" p-id="9314"></path></svg>