<?xml version="1.0" standalone="no"?><!DOCTYPE svg PUBLIC "-//W3C//DTD SVG 1.1//EN" "http://www.w3.org/Graphics/SVG/1.1/DTD/svg11.dtd"><svg t="1565698913413" class="icon" viewBox="0 0 1024 1024" version="1.1" xmlns="http://www.w3.org/2000/svg" p-id="3939" xmlns:xlink="http://www.w3.org/1999/xlink" width="20" height="20"><defs><style type="text/css"></style></defs><path d="M511.99968 0C264.57568 0 63.99968 189.888 63.99968 424.192c0 117.12 50.176 223.104 131.2 299.904L511.99968 1024l316.8-299.904c84.224-79.68 131.392-187.52 131.2-299.904C959.99968 189.888 759.42368 0 511.99968 0z m0 612.608a206.08 206.08 0 0 1-141.12-55.424 182.4 182.4 0 0 1-58.048-133.12 182.4 182.4 0 0 1 58.112-133.056A206.08 206.08 0 0 1 511.99968 235.648a206.08 206.08 0 0 1 141.12 55.424c37.312 35.328 58.24 83.2 58.048 133.12a182.4 182.4 0 0 1-58.112 133.12A206.08 206.08 0 0 1 511.99968 612.608v-0.064z" p-id="3940" fill="#8a8a8a"></path></svg>