<?xml version="1.0" standalone="no"?><!DOCTYPE svg PUBLIC "-//W3C//DTD SVG 1.1//EN" "http://www.w3.org/Graphics/SVG/1.1/DTD/svg11.dtd"><svg t="1566460194470" class="icon" viewBox="0 0 1024 1024" version="1.1" xmlns="http://www.w3.org/2000/svg" p-id="19095" width="24" height="24" xmlns:xlink="http://www.w3.org/1999/xlink"><defs><style type="text/css"></style></defs><path d="M511.1 531.4c-81.3 0-147.5-66.2-147.5-147.5s66.2-147.5 147.5-147.5 147.5 66.2 147.5 147.5-66.2 147.5-147.5 147.5z m0-250c-56.5 0-102.5 46-102.5 102.5s46 102.5 102.5 102.5 102.5-46 102.5-102.5-46-102.5-102.5-102.5z" fill="#FFCD05" p-id="19096"></path><path d="M511.1 883.5c-5 0-9.9-1.6-14-4.9-63.2-50.5-137-136-192.6-223.2-47.4-74.4-104-184-104-284.2 0-45.2 8.2-87.8 24.4-126.4 15.6-37.1 38.1-69.9 67-97.3 56.7-53.7 134.5-83.2 219.2-83.2 84.7 0 162.5 29.6 219.2 83.2 28.9 27.4 51.5 60.1 67 97.3 16.2 38.6 24.4 81.1 24.4 126.4 0 35.6-9.2 80-26.7 128.6-16.7 46.3-40.2 93.8-66.3 133.9-6.8 10.4-20.7 13.3-31.1 6.6-10.4-6.8-13.3-20.7-6.6-31.1 24.2-37.2 46.1-81.4 61.7-124.5 15.5-43.1 24.1-83.3 24.1-113.3 0-39.2-7-75.9-20.9-109-13.1-31.3-32.1-58.9-56.5-82-48.3-45.7-115.1-70.9-188.2-70.9s-140 25.2-188.2 70.9c-24.3 23.1-43.3 50.6-56.5 82-13.9 33.1-20.9 69.8-20.9 109 0 69.7 34.4 162 96.9 260C391.4 708 454.6 783 510.8 831.6c35.2-31.7 79.7-78.3 113.6-119 7.9-9.6 22.1-10.9 31.7-2.9 9.6 7.9 10.9 22.1 2.9 31.7-40.7 49-94.3 104.1-133.3 137-4.3 3.3-9.5 5.1-14.6 5.1z" fill="#FFCD05" p-id="19097"></path><path d="M511.1 958.5c-111 0-212.6-11-286.3-30.9-37.4-10.1-67-22.3-87.9-36.3-26.1-17.4-39.3-37.6-39.3-60.3 0-23.7 14.3-57.9 82.6-86.5 48.8-20.4 117.8-34.9 199.3-41.8 12.4-1.1 23.3 8.1 24.3 20.5s-8.1 23.3-20.5 24.3c-76.9 6.5-141.2 19.8-185.7 38.4-40.5 16.9-55 34.3-55 44.9 0 6.4 7 14.7 19.2 22.8 16.7 11.1 42.5 21.6 74.7 30.3 69.9 18.9 167.4 29.3 274.5 29.3 107.3 0 205.4-10.4 276.1-29.4 65.5-17.5 95.4-39.8 95.4-53.1 0-16.8-27.9-34.6-54-45.7-44.3-18.8-108.9-32-186.9-38.2-12.4-1-21.6-11.8-20.6-24.2 1-12.4 11.8-21.6 24.2-20.6 82.7 6.6 152.2 21 200.9 41.7 37.2 15.7 81.4 43.6 81.4 87.1 0 22.7-13.4 43-39.9 60.4-21.2 13.9-51.1 26.1-88.9 36.2-74.3 20.1-176.5 31.1-287.6 31.1z" fill="#FFCD05" p-id="19098"></path></svg>