<?xml version="1.0" standalone="no"?><!DOCTYPE svg PUBLIC "-//W3C//DTD SVG 1.1//EN" "http://www.w3.org/Graphics/SVG/1.1/DTD/svg11.dtd"><svg t="1565516432243" class="icon" viewBox="0 0 1024 1024" version="1.1" xmlns="http://www.w3.org/2000/svg" p-id="4962" width="20" height="20" xmlns:xlink="http://www.w3.org/1999/xlink"><defs><style type="text/css"></style></defs><path d="M700.370852 20.895871C721.131646 0.016373 754.876124-0.071631 775.756645 20.689163c20.879498 20.761818 20.966479 54.520622 0.205685 75.385794L323.634265 549.597218c-20.761818 20.879498-54.513459 20.968525-75.39398 0.205684-20.871312-20.760795-20.967502-54.519599-0.205685-75.399097L700.370852 20.895871z" fill="#ffffff" p-id="4963"></path><path d="M775.96233 927.910717c20.760795 20.878475 20.673814 54.638302-0.205685 75.399096-20.880521 20.762841-54.624999 20.673814-75.385793-0.204661l-452.337275-453.507934c-20.761818-20.878475-20.665627-54.638302 0.205684-75.40012 20.880521-20.761818 54.632162-20.659488 75.39398 0.206707l452.329089 453.506912z" fill="#ffffff" p-id="4964"></path></svg>