<?xml version="1.0" standalone="no"?><!DOCTYPE svg PUBLIC "-//W3C//DTD SVG 1.1//EN" "http://www.w3.org/Graphics/SVG/1.1/DTD/svg11.dtd"><svg t="1565252412466" class="icon" viewBox="0 0 1024 1024" version="1.1" xmlns="http://www.w3.org/2000/svg" p-id="1410" xmlns:xlink="http://www.w3.org/1999/xlink" width="22" height="22"><defs><style type="text/css"></style></defs><path d="M578.5 579.8m-188.5 0a188.5 188.5 0 1 0 377 0 188.5 188.5 0 1 0-377 0Z" fill="#A5E8D0" p-id="1411"></path><path d="M651.4 812.8c-313.9 141.5-618.5-163.2-477-477 31.3-69.4 87.4-125.5 156.8-156.8C645 37.5 949.7 342.2 808.1 656c-31.2 69.4-87.3 125.5-156.7 156.8z m-19.6-562.2C373.5 120.9 116.3 378.1 246 636.4c22.7 45.1 59.7 82.1 104.8 104.8 258.4 129.7 515.5-127.5 385.9-385.9-22.7-45.1-59.7-82.1-104.9-104.7zM747.452 804.588l51.265-51.265 159.521 159.522-51.264 51.264z" fill="#2A2A2A" p-id="1412"></path></svg>