<?xml version="1.0" standalone="no"?><!DOCTYPE svg PUBLIC "-//W3C//DTD SVG 1.1//EN" "http://www.w3.org/Graphics/SVG/1.1/DTD/svg11.dtd"><svg t="1567151394558" class="icon" viewBox="0 0 1024 1024" version="1.1" xmlns="http://www.w3.org/2000/svg" p-id="5080" width="16" height="16" xmlns:xlink="http://www.w3.org/1999/xlink"><defs><style type="text/css"></style></defs><path d="M703.932266 193.305017l226.648416-107.435829a43.357257 43.357257 0 0 0-37.136528-78.347957l-251.430184 119.183687a43.350032 43.350032 0 0 0-24.781768 39.173978v324.229338a199.821971 199.821971 0 0 0-114.285134-35.792676c-110.824356 0-200.992422 90.160841-200.992422 200.992422 0 110.824356 90.160841 200.985197 200.992422 200.985197 110.824356 0 200.985197-90.160841 200.985198-200.985197V193.305017z m-200.992423 576.295322c-63.023721 0-114.292359-51.268638-114.292358-114.285134s51.268638-114.285134 114.292358-114.285134S617.232202 592.291484 617.232202 655.30798s-51.268638 114.292359-114.292359 114.292359zM319.590884 479.480251c16.473012-7.138305 24.037593-26.284569 16.892062-42.757581s-26.284569-24.044818-42.757581-16.892063c-44.657758 19.363014-79.106583 54.95339-96.988471 100.232499-17.889113 45.279108-17.072688 94.806519 2.297552 139.464277a32.526974 32.526974 0 0 0 42.764806 16.899287 32.512524 32.512524 0 0 0 16.892062-42.764806 116.467085 116.467085 0 0 1-1.473901-89.705666 116.365935 116.365935 0 0 1 62.373471-64.475947zM214.192507 374.544274a32.512524 32.512524 0 0 0-25.872744-59.656868C50.416087 374.703224-13.127835 535.560742 46.673534 673.471643a32.526974 32.526974 0 0 0 42.764807 16.899288 32.512524 32.512524 0 0 0 16.892062-42.764807c-45.539208-105.015452 2.846652-227.508192 107.862104-273.06185zM832.46511 663.739561a32.512524 32.512524 0 0 0-61.441445 21.313766c21.183716 61.065745-11.263783 127.976519-72.322303 149.167459a32.512524 32.512524 0 1 0 21.313765 61.426995c94.929345-32.938799 145.374331-136.97165 112.449983-231.90822zM981.032894 670.357666a32.526974 32.526974 0 0 0-61.441445 21.313766c18.178113 52.381288 14.861836 108.714655-9.334707 158.610541s-66.368899 87.386439-118.757412 105.550102a32.512524 32.512524 0 1 0 21.313765 61.441445c68.7965-23.864192 124.183391-73.095379 155.95174-138.633401 31.768348-65.516348 36.125026-139.485952 12.268059-208.282453z" fill="#515151" p-id="5081"></path></svg>