<?xml version="1.0" standalone="no"?><!DOCTYPE svg PUBLIC "-//W3C//DTD SVG 1.1//EN" "http://www.w3.org/Graphics/SVG/1.1/DTD/svg11.dtd"><svg t="1566181417632" class="icon" viewBox="0 0 1024 1024" version="1.1" xmlns="http://www.w3.org/2000/svg" p-id="963" width="16" height="16" xmlns:xlink="http://www.w3.org/1999/xlink"><defs><style type="text/css"></style></defs><path d="M898.24 32h-228.48A61.76 61.76 0 0 0 608 93.76V192h224a32 32 0 0 1 0 64h-224v128h96a32 32 0 0 1 0 64h-96v128h96a32 32 0 0 1 0 64h-96v128h224a32 32 0 0 1 0 64h-224v98.24A61.76 61.76 0 0 0 669.76 992h228.48A61.76 61.76 0 0 0 960 930.24V93.76A61.76 61.76 0 0 0 898.24 32zM384 288H64v557.44l160 160 160-160zM224 873.6l-88-88c65.92-65.92 110.08-65.92 176 0zM384 224V78.08a300.8 300.8 0 0 0-320 0V224z" fill="#515151" p-id="964"></path></svg>